<svg width="425" height="385" viewBox="0 0 425 385" fill="none" xmlns="http://www.w3.org/2000/svg">
<path d="M293.333 25V0H263.333V25H161.667V0H131.667V25H0V385H316.213L425 276.213V25H293.333ZM131.667 55V80H161.667V55H263.334V75H293.334V55H395V105H30V55H131.667ZM30 135H395V255H295V355H30V135ZM373.787 285L325 333.787V285H373.787Z" fill="#C5C3C3"/>
<path d="M147.5 265H97.5V315H147.5V265Z" fill="#C5C3C3"/>
<path d="M237.5 265H187.5V315H237.5V265Z" fill="#C5C3C3"/>
<path d="M237.5 175H187.5V225H237.5V175Z" fill="#C5C3C3"/>
<path d="M327.5 175H277.5V225H327.5V175Z" fill="#C5C3C3"/>
<path d="M147.5 175H97.5V225H147.5V175Z" fill="#C5C3C3"/>
</svg>
