<svg width="198" height="204" viewBox="0 0 198 204" fill="none" xmlns="http://www.w3.org/2000/svg">
<path d="M191.139 11.918H151.824V6C151.824 2.687 149.137 0 145.824 0C142.511 0 139.824 2.687 139.824 6V11.918H104.771V6C104.771 2.687 102.084 0 98.7708 0C95.4578 0 92.7708 2.687 92.7708 6V11.918H59.2078V6C59.2078 2.687 56.5208 0 53.2078 0C49.8948 0 47.2078 2.687 47.2078 6V11.918H6.40381C3.09081 11.918 0.403809 14.605 0.403809 17.918V153.49C0.403809 156.803 3.09081 159.49 6.40381 159.49H43.2298C49.1308 184.704 71.7848 203.543 98.7708 203.543C125.757 203.543 148.411 184.703 154.312 159.49H191.138C194.451 159.49 197.138 156.803 197.138 153.49V17.918C197.139 14.605 194.453 11.918 191.139 11.918ZM47.2078 23.918V29.34C47.2078 32.653 49.8948 35.34 53.2078 35.34C56.5208 35.34 59.2078 32.653 59.2078 29.34V23.918H92.7708V29.34C92.7708 32.653 95.4578 35.34 98.7708 35.34C102.084 35.34 104.771 32.653 104.771 29.34V23.918H139.824V29.34C139.824 32.653 142.511 35.34 145.824 35.34C149.137 35.34 151.824 32.653 151.824 29.34V23.918H185.139V48.454H12.4038V23.918H47.2078ZM98.7708 191.543C73.9288 191.543 53.7178 171.332 53.7178 146.49C53.7178 121.648 73.9288 101.437 98.7708 101.437C123.613 101.437 143.824 121.647 143.824 146.49C143.824 171.333 123.614 191.543 98.7708 191.543ZM155.799 147.49C155.805 147.156 155.824 146.825 155.824 146.49C155.824 115.031 130.23 89.437 98.7708 89.437C67.3118 89.437 41.7178 115.031 41.7178 146.49C41.7178 146.825 41.7378 147.156 41.7428 147.49H12.4028V60.455H185.138V147.49H155.799Z" fill="#C5C3C3"/>
<path d="M98.565 145.635L125.99 155.143C129.12 156.229 132.539 154.57 133.624 151.44C134.709 148.31 133.051 144.891 129.92 143.806L100.147 133.483C98.6438 132.962 96.995 133.059 95.5626 133.753L78.0153 142.265C76.525 142.988 75.4685 144.247 74.9653 145.698C74.4625 147.148 74.513 148.792 75.2355 150.283C76.6817 153.264 80.2711 154.508 83.2523 153.062L98.565 145.635Z" fill="#C5C3C3"/>
</svg>
