<svg width="461" height="486" viewBox="0 0 461 486" fill="none" xmlns="http://www.w3.org/2000/svg">
<path d="M299.409 251.414C304.729 249.877 317.187 246.269 322.978 229.237L334.909 194.151L339.708 195.781C341.905 196.529 344.313 195.343 345.061 193.146L351.462 174.322C352.21 172.125 351.024 169.718 348.825 168.971L194.154 116.379C191.958 115.632 189.548 116.819 188.801 119.015L182.4 137.838C181.654 140.034 182.841 142.442 185.036 143.19L189.835 144.822L177.69 180.547C171.955 197.412 175.749 203.107 182.945 211.726L214.244 249.206L210.755 259.466C198.779 262.065 167.483 268.884 163.27 270.101C157.951 271.64 145.49 275.244 139.698 292.278L129.427 322.488L124.627 320.857C122.432 320.11 120.021 321.295 119.273 323.492L112.875 342.315C112.127 344.512 113.314 346.919 115.511 347.668L270.183 400.261C272.377 401.007 274.787 399.821 275.535 397.623L281.932 378.803C282.681 376.606 281.495 374.197 279.296 373.449L274.499 371.817L284.985 340.968C290.72 324.105 286.929 318.407 279.731 309.792L248.434 272.311L251.92 262.051C263.897 259.453 295.193 252.635 299.409 251.414ZM234.043 278.771L268.078 319.524C270.689 322.651 272.072 324.358 272.447 325.921C272.898 327.798 272.295 331.122 270.609 336.077L260.121 366.928L143.805 327.378L154.074 297.169C157.317 287.634 163.196 285.932 167.487 284.69C170.843 283.72 199.633 277.408 218.166 273.399C220.77 272.836 222.891 270.945 223.749 268.421L229.994 250.056C230.845 247.548 230.331 244.779 228.634 242.746L194.702 202.115L194.599 201.99C191.987 198.863 190.604 197.156 190.23 195.592C189.78 193.715 190.38 190.394 192.067 185.436L204.213 149.711L320.532 189.261L308.6 224.348C305.359 233.885 299.482 235.585 295.19 236.827C291.836 237.798 263.045 244.112 244.514 248.118C241.909 248.682 239.786 250.571 238.927 253.097L232.684 271.46C231.831 273.969 232.348 276.736 234.043 278.771Z" fill="#C5C3C3"/>
<path d="M325.935 423.581C322.54 425.505 319.039 427.347 315.536 429.055C314.969 429.332 314.422 429.635 313.893 429.962C313.331 430.157 312.772 430.384 312.217 430.642C297.011 437.732 281.155 442.724 264.821 445.619C264.612 445.649 264.403 445.661 264.192 445.699C260.341 446.38 256.422 446.947 252.546 447.391C252.504 447.398 252.461 447.408 252.419 447.413C245.301 448.198 238.103 448.599 230.83 448.599C146.968 448.599 75.449 394.789 48.95 319.889C48.551 318.746 48.149 317.606 47.77 316.461C41.418 297.36 37.968 276.946 37.968 255.739C37.968 234.488 41.433 214.029 47.812 194.893C47.951 194.475 48.085 194.06 48.226 193.641C48.607 192.527 49.001 191.417 49.403 190.31C49.59 189.79 49.779 189.273 49.971 188.757C71.991 129.489 122.359 83.894 184.512 68.515C184.551 68.506 184.591 68.503 184.63 68.494C185.549 68.266 186.475 68.044 187.402 67.83C187.506 67.807 187.606 67.769 187.706 67.744C201.265 64.636 215.364 62.965 229.832 62.891L229.999 82.72C230.05 88.876 233.937 90.654 238.631 86.675L280.517 51.171C285.21 47.192 285.16 40.741 280.394 36.841L237.92 2.04499C233.158 -1.85401 229.304 -0.011013 229.356 6.14399L229.523 25.934C168.623 26.271 111.42 50.133 68.319 93.232C64.073 97.478 60.021 101.864 56.154 106.373C56.131 106.399 56.107 106.42 56.083 106.448C55.94 106.614 55.805 106.787 55.664 106.953C21.739 146.762 2.61299 196.378 1.11199 249.014C1.07499 249.423 1.03098 249.829 1.02098 250.247C0.979985 252.003 0.958984 253.788 0.958984 255.553C0.958984 258.447 1.01798 261.38 1.12698 264.273C1.13898 264.612 1.18298 264.943 1.21598 265.276C3.15998 313.234 19.743 358.576 48.837 396.132C48.936 396.261 49.015 396.399 49.115 396.528C51.957 400.196 54.962 403.83 58.035 407.326C58.233 407.551 58.45 407.746 58.654 407.96C61.765 411.468 64.977 414.904 68.32 418.246C102.443 452.37 145.408 474.433 192.046 482.314C192.188 482.34 192.331 482.368 192.473 482.394C192.579 482.41 192.684 482.417 192.788 482.433C205.243 484.495 217.955 485.562 230.83 485.562C264.711 485.562 297.347 478.353 327.834 464.142C328.491 463.836 329.115 463.485 329.716 463.114C330.399 462.879 331.07 462.6 331.732 462.277C335.915 460.235 340.093 458.041 344.144 455.748C353.026 450.718 356.152 439.442 351.123 430.56C346.092 421.677 334.815 418.555 325.935 423.581Z" fill="#C5C3C3"/>
<path d="M390.976 148.173C394.543 153.482 400.383 156.347 406.33 156.347C409.874 156.347 413.46 155.33 416.622 153.204C425.093 147.511 427.345 136.03 421.652 127.558C419.053 123.693 416.307 119.86 413.476 116.167C407.276 108.059 395.678 106.517 387.571 112.717C379.465 118.919 377.921 130.519 384.125 138.624C386.496 141.725 388.801 144.938 390.976 148.173Z" fill="#C5C3C3"/>
<path d="M414.446 196.708C415.634 200.419 416.725 204.224 417.693 208.019C419.824 216.379 427.341 221.94 435.589 221.94C437.098 221.94 438.636 221.753 440.166 221.363C450.057 218.843 456.032 208.78 453.511 198.891C452.361 194.378 451.061 189.851 449.645 185.435C446.535 175.715 436.131 170.356 426.412 173.47C416.69 176.584 411.333 186.988 414.446 196.708Z" fill="#C5C3C3"/>
<path d="M402.674 380.14C394.95 373.465 383.283 374.312 376.607 382.032C374.051 384.988 371.375 387.901 368.649 390.689C361.515 397.99 361.651 409.69 368.953 416.825C372.548 420.338 377.21 422.088 381.866 422.088C386.669 422.088 391.468 420.226 395.087 416.522C398.333 413.199 401.525 409.73 404.566 406.209C411.239 398.486 410.393 386.815 402.674 380.14Z" fill="#C5C3C3"/>
<path d="M442.675 243.736C432.456 243.429 423.953 251.455 423.651 261.656C423.536 265.563 423.295 269.515 422.937 273.401C422.004 283.564 429.488 292.561 439.652 293.494C440.226 293.547 440.796 293.572 441.363 293.572C450.803 293.572 458.866 286.369 459.744 276.78C460.17 272.141 460.458 267.426 460.596 262.761C460.897 252.562 452.878 244.041 442.675 243.736Z" fill="#C5C3C3"/>
<path d="M434.456 315.401C424.947 311.678 414.228 316.367 410.507 325.873C409.084 329.508 407.529 333.153 405.884 336.701C401.594 345.961 405.623 356.945 414.884 361.236C417.401 362.402 420.041 362.953 422.642 362.953C429.62 362.953 436.296 358.983 439.422 352.237C441.378 348.013 443.232 343.678 444.925 339.348C448.647 329.845 443.959 319.123 434.456 315.401Z" fill="#C5C3C3"/>
<path d="M371.518 96.938C377.593 88.734 375.868 77.161 367.664 71.087C363.929 68.32 360.056 65.633 356.154 63.095C347.597 57.532 336.15 59.956 330.587 68.513C325.025 77.069 327.448 88.515 336.003 94.08C339.282 96.21 342.532 98.469 345.671 100.793C348.977 103.24 352.832 104.422 356.655 104.422C362.311 104.422 367.895 101.833 371.518 96.938Z" fill="#C5C3C3"/>
</svg>
